# xmcd CD database file
#
# Track frame offsets:
#	150
#	17151
#	35701
#	55247
#	78129
#	96790
#	114400
#	131035
#	144420
#	160807
#	179900
#	192198
#	205490
#	218738
#
# Disc length: 3158 seconds
#
# Revision: 3
# Processed by: cddbd v1.5.2PL0 Copyright (c) Steve Scherf et al.
# Submitted via: CDex 1.70beta2
#
DISCID=c90c540e
DTITLE=Zijlstra - Tussen den Oever en New York
DYEAR=2001
DGENRE=Kleinkunst
TTITLE0=Kom 't maar halen
TTITLE1=Tot slot
TTITLE2=Whiskey and Bier
TTITLE3=Een Wieringer in New York
TTITLE4=Halfweg
TTITLE5=Durgerdam slaapt
TTITLE6=Grietje
TTITLE7=De pond naar Noord
TTITLE8=Koperen Helden
TTITLE9=Jutter
TTITLE10=Waar is de Paling?
TTITLE11=Atlantis
TTITLE12=Down and Eenzaam
TTITLE13=De laatste
EXTD=YEAR: 2001
EXTT0=
EXTT1=
EXTT2=
EXTT3=
EXTT4=
EXTT5=
EXTT6=
EXTT7=
EXTT8=
EXTT9=
EXTT10=
EXTT11=
EXTT12=
EXTT13=
PLAYORDER=
